<?xml version="1.0" standalone="no"?>
<!DOCTYPE svg PUBLIC "-//W3C//DTD SVG 20010904//EN"
 "http://www.w3.org/TR/2001/REC-SVG-20010904/DTD/svg10.dtd">
<svg version="1.0" xmlns="http://www.w3.org/2000/svg"
 width="500.000000pt" height="500.000000pt" viewBox="0 0 500.000000 500.000000"
 preserveAspectRatio="xMidYMid meet">
<metadata>
Created by potrace 1.14, written by Peter Selinger 2001-2017
</metadata>
<g transform="translate(0.000000,500.000000) scale(0.100000,-0.100000)"
fill="#000000" stroke="none">
<path d="M2429 4408 c-57 -93 -206 -410 -215 -460 -1 -5 -3 -10 -4 -13 -1 -3
-3 -8 -4 -12 -1 -5 -9 -30 -19 -58 -9 -27 -19 -63 -22 -80 -2 -16 -7 -41 -10
-55 -11 -50 -17 -117 -18 -212 -2 -74 -5 -98 -15 -98 -17 0 -201 89 -224 109
-10 8 -18 11 -18 8 0 -3 -47 21 -105 53 -58 33 -109 60 -114 60 -5 0 -11 3
-13 8 -1 4 -48 37 -103 74 -124 84 -271 223 -335 317 -51 75 -89 151 -121 246
-12 36 -26 65 -31 65 -14 0 -1 -398 17 -520 17 -125 39 -231 61 -314 14 -50
28 -101 31 -114 3 -12 9 -25 14 -28 5 -3 9 -12 9 -20 0 -25 88 -193 142 -271
51 -74 156 -187 218 -236 30 -23 32 -27 14 -27 -20 0 -195 62 -274 96 -250
110 -381 200 -453 312 -16 24 -31 42 -34 39 -5 -6 64 -233 103 -338 35 -94
132 -283 188 -368 96 -144 251 -280 394 -346 34 -16 62 -32 62 -37 0 -5 5 -6
10 -3 6 3 10 2 10 -4 0 -6 -18 -8 -42 -6 -24 2 -85 7 -137 10 -51 3 -96 7
-100 10 -4 2 -20 6 -35 9 -38 7 -95 25 -133 42 -18 8 -35 14 -38 14 -12 -1
-123 75 -157 108 -57 54 -49 18 18 -86 103 -159 126 -192 153 -225 51 -62 187
-193 234 -226 50 -34 179 -100 206 -106 9 -2 30 -8 46 -15 17 -6 30 -10 30 -9
0 2 8 -2 19 -8 15 -8 16 -12 5 -19 -16 -10 -24 -11 -104 -19 -71 -8 -187 -8
-232 -1 -44 6 -143 35 -168 49 -23 12 -45 18 -45 10 0 -7 87 -84 161 -144 138
-111 258 -179 384 -219 81 -25 122 -31 225 -34 93 -2 103 -7 87 -44 -6 -15
-15 -30 -20 -33 -5 -3 -7 -8 -6 -10 4 -6 -52 -162 -64 -176 -5 -7 -6 -13 -2
-13 4 0 2 -7 -5 -15 -7 -8 -10 -15 -7 -15 3 0 -9 -42 -27 -92 -19 -51 -34 -95
-34 -98 0 -3 -3 -12 -6 -20 -2 -8 -14 -46 -26 -85 -12 -38 -24 -77 -27 -85 -4
-8 -7 -17 -8 -20 -4 -19 -40 -120 -50 -145 -21 -50 -47 -124 -45 -130 1 -3 -6
-17 -15 -31 -9 -14 -14 -28 -11 -31 6 -7 256 247 256 260 0 4 4 7 9 7 5 0 61
51 124 113 209 204 376 357 390 357 4 0 7 7 7 15 0 8 4 15 8 15 5 0 30 20 55
44 26 24 47 42 47 40 0 -2 13 9 29 24 33 31 118 105 176 154 61 50 75 61 96
81 10 9 21 17 24 17 2 0 15 10 28 22 36 34 66 59 122 103 27 22 58 48 69 57
10 9 51 41 92 70 59 43 81 67 116 127 24 41 45 79 47 85 2 5 8 15 13 21 5 5
41 60 82 121 90 138 115 172 186 253 157 184 292 270 431 276 60 3 171 -14
222 -34 15 -6 38 -13 50 -15 12 -3 63 -17 112 -31 50 -14 110 -27 135 -30 25
-2 45 -5 45 -5 0 -5 84 -7 99 -3 14 4 -3 19 -71 64 -59 38 -137 106 -229 197
-151 150 -229 201 -333 220 -80 14 -221 3 -266 -20 -11 -6 -22 -11 -25 -10 -3
0 -18 -5 -35 -12 -67 -29 -90 -38 -91 -34 0 1 -8 -3 -16 -9 -8 -7 -69 -40
-134 -74 -65 -34 -137 -70 -159 -82 -73 -38 -78 -36 -110 45 -60 156 -128 285
-231 437 -35 51 -64 97 -64 101 0 5 -4 10 -8 12 -12 4 -190 268 -242 358 -24
41 -49 82 -55 90 -29 39 -103 223 -130 325 -33 125 -36 309 -5 389 14 38 -6
33 -31 -6z"/>
<path d="M1844 13 c-34 -10 -20 -11 111 -12 114 0 144 3 125 11 -35 15 -189
16 -236 1z"/>
<path d="M3031 18 c-24 -4 -46 -10 -49 -13 -3 -3 64 -5 149 -4 112 0 146 3
124 10 -41 13 -170 17 -224 7z"/>
<path d="M4185 14 c-46 -11 -39 -12 100 -12 111 -1 144 2 125 9 -37 16 -168
17 -225 3z"/>
<path d="M823 3 c26 -2 68 -2 95 0 26 2 4 3 -48 3 -52 0 -74 -1 -47 -3z"/>
</g>
</svg>
